<?xml version="1.0" encoding="UTF-8" standalone="no"?>
<!-- Created with Inkscape (http://www.inkscape.org/) -->

<svg
   xmlns:dc="http://purl.org/dc/elements/1.1/"
   xmlns:cc="http://creativecommons.org/ns#"
   xmlns:rdf="http://www.w3.org/1999/02/22-rdf-syntax-ns#"
   xmlns:svg="http://www.w3.org/2000/svg"
   xmlns="http://www.w3.org/2000/svg"
   xmlns:sodipodi="http://sodipodi.sourceforge.net/DTD/sodipodi-0.dtd"
   xmlns:inkscape="http://www.inkscape.org/namespaces/inkscape"
   version="1.1"
   id="svg24"
   width="800"
   height="792"
   viewBox="0 0 800 792"
   sodipodi:docname="MegaDeskLogo.svg"
   inkscape:version="0.92.3 (2405546, 2018-03-11)">
  <metadata
     id="metadata30">
    <rdf:RDF>
      <cc:Work
         rdf:about="">
        <dc:format>image/svg+xml</dc:format>
        <dc:type
           rdf:resource="http://purl.org/dc/dcmitype/StillImage" />
        <dc:title></dc:title>
      </cc:Work>
    </rdf:RDF>
  </metadata>
  <defs
     id="defs28" />
  <sodipodi:namedview
     pagecolor="#ffffff"
     bordercolor="#666666"
     borderopacity="1"
     objecttolerance="10"
     gridtolerance="10"
     guidetolerance="10"
     inkscape:pageopacity="0"
     inkscape:pageshadow="2"
     inkscape:window-width="1680"
     inkscape:window-height="987"
     id="namedview26"
     showgrid="false"
     inkscape:zoom="0.2979798"
     inkscape:cx="400"
     inkscape:cy="396"
     inkscape:window-x="2962"
     inkscape:window-y="484"
     inkscape:window-maximized="1"
     inkscape:current-layer="svg24" />
  <g
     id="g3737"
     transform="translate(3.3559458,3.3559334)">
    <path
       style="fill:#dadada"
       d="m 377,782.345 c -10.74917,-0.72994 -34.14799,-3.52345 -41.5,-4.95454 -17.33267,-3.37386 -27.21789,-5.5122 -32,-6.92216 -2.75,-0.81081 -9.5,-2.77788 -15,-4.37127 C 274.19716,761.9534 248.8154,752.5816 242.0893,748.96064 241.21519,748.49007 234.2,744.99545 226.5,741.19484 205.61917,730.88834 204.98987,730.53183 188,719.38415 158.67093,700.14025 129.48174,674.2975 105.65354,646.4784 92.423633,631.03267 92.100573,630.61409 82.516591,616.5 c -4.108171,-6.05 -8.82599,-12.92253 -10.484042,-15.27229 -1.658053,-2.34975 -3.941943,-5.94975 -5.075313,-8 C 65.823866,591.17747 63.144945,586.35 61.004078,582.5 48.660193,560.30153 38.927467,537.96159 32.468037,517 c -1.440627,-4.675 -3.218772,-10.075 -3.951434,-12 -0.732662,-1.925 -2.302491,-7.55 -3.488509,-12.5 -1.186019,-4.95 -2.644872,-10.8 -3.241896,-13 -1.635232,-6.02574 -4.347949,-22.8153 -7.270724,-45 -2.731733,-20.73464 -2.533034,-67.25579 0.360912,-84.5 0.599962,-3.575 1.570899,-9.875 2.157638,-14 3.884964,-27.31275 10.216553,-51.72367 20.750024,-80 12.744184,-34.21083 31.772318,-68.04264 56.14102,-99.81811 C 98.008855,150.85685 104.52599,142.9 108.4076,138.5 c 8.62947,-9.78196 33.79155,-34.78522 38.5924,-38.34882 1.925,-1.428891 7.55,-6.000309 12.5,-10.158701 9.88949,-8.307952 9.17347,-7.780734 25.5,-18.776137 14.92354,-10.050535 22.44222,-14.437974 39.5,-23.049787 19.8182,-10.005442 40.41206,-18.88076 49,-21.117489 1.65,-0.429743 7.05,-2.129347 12,-3.776899 4.95,-1.647551 13.05,-3.986656 18,-5.198009 4.95,-1.211354 10.8,-2.690936 13,-3.28796 4.37083,-1.186132 15.75682,-3.169115 27.5,-4.7893998 4.125,-0.5691536 9.975,-1.5016585 13,-2.0722332 15.20182,-2.8673624 73.42986,-2.8927136 89,-0.038749 3.025,0.5544743 9.1,1.5061773 13.5,2.114896 19.52408,2.701061 39.29059,7.084628 56.5,12.52986 14.21763,4.498603 18.04927,5.80818 25.5,8.715397 16.90076,6.59454 47.96091,21.595274 60.20241,29.075201 2.86132,1.748357 7.36132,4.498692 10,6.111856 7.99523,4.887916 23.33005,15.818375 28.20521,20.104305 2.52581,2.220532 7.96738,6.710352 12.09238,9.977377 10.72665,8.495572 32.60386,30.026552 44.39697,43.694332 12.29643,14.25112 15.16555,17.89147 22.69141,28.79096 3.22798,4.675 7.16714,10.3 8.75368,12.5 7.9156,10.97625 27.72522,48.40372 33.60929,63.5 0.96468,2.475 2.1192,5.21963 2.56559,6.09918 1.11678,2.20041 8.29187,23.75282 10.95314,32.90082 1.20001,4.125 2.6504,8.85 3.22308,10.5 1.12262,3.23448 3.08222,12.37953 5.30505,24.75755 0.7662,4.26666 1.67304,8.21052 2.0152,8.76415 0.6555,1.06062 2.85877,19.9544 4.4871,38.4783 2.29717,26.13275 0.16132,69.8495 -4.59253,94 -4.96414,25.21882 -5.62465,28.01635 -10.27049,43.5 -1.07267,3.575 -2.19051,7.4 -2.48408,8.5 -3.7076,13.89208 -14.7585,40.54299 -24.86052,59.95488 -11.00485,21.14677 -12.1488,22.99401 -32.79289,52.95388 -12.477,18.10733 -48.88501,56.25989 -65.932,69.09124 -2.92279,2.2 -8.07128,6.27212 -11.44108,9.04915 -6.62318,5.45812 -6.96608,5.70394 -19.62692,14.07063 -16.79054,11.09571 -18.56888,12.21482 -23.5,14.78846 -2.75,1.43528 -5.675,3.04277 -6.5,3.5722 -2.40126,1.54097 -32.05905,15.54492 -37,17.47084 -2.475,0.96472 -5.28207,2.15826 -6.23792,2.65231 -0.95586,0.49405 -5.68086,2.22611 -10.5,3.84902 -4.81915,1.62291 -10.11208,3.43381 -11.76208,4.02423 -11.34641,4.06009 -29.0963,8.52937 -45.75755,11.52137 -4.26666,0.7662 -8.21052,1.67304 -8.76415,2.0152 -1.0915,0.67459 -21.14227,3.0425 -37.9783,4.48508 -9.73455,0.8341 -42.65075,1.0493 -53,0.34651 z"
       id="path3751"
       inkscape:connector-curvature="0" />
    <path
       style="fill:#dda492"
       d="m 362.5,779.00827 c -9.35,-0.93311 -20.825,-2.45666 -25.5,-3.38567 -4.675,-0.92901 -12.325,-2.40283 -17,-3.27514 -4.675,-0.87232 -11.2,-2.39481 -14.5,-3.38333 -3.3,-0.98851 -8.7,-2.52166 -12,-3.40701 -3.3,-0.88534 -7.35,-2.07138 -9,-2.63564 -1.65,-0.56427 -6.6,-2.14406 -11,-3.51067 -4.4,-1.3666 -9.125,-3.07178 -10.5,-3.78927 -1.375,-0.7175 -5.425,-2.36431 -9,-3.65959 -6.86916,-2.4888 -46.05236,-21.96707 -52,-25.84959 -1.925,-1.25661 -6.65,-4.26816 -10.5,-6.69234 -9.87723,-6.21926 -17.2633,-11.40926 -21.42316,-15.05351 -1.96726,-1.72342 -6.11121,-5.09842 -9.20878,-7.5 C 130.6545,673.44158 103.02682,643.95258 82.425885,613.13955 78.616648,607.44204 74.375,601.14234 73,599.14022 67.327336,590.88032 52.206098,562.26213 46.251607,548.51667 39.667399,533.31757 31.513679,509.43405 27.469172,493.5 20.409397,465.68677 19.93416,462.81478 14.975953,418 c -1.240431,-11.21164 -1.216927,-37.33131 0.04319,-48 0.552182,-4.675 1.650063,-14.35 2.439736,-21.5 1.742036,-15.77307 4.07495,-30.93998 5.38356,-35 0.531822,-1.65 1.96076,-7.5 3.175416,-13 1.214657,-5.5 2.803111,-11.575 3.529898,-13.5 0.726786,-1.925 2.280296,-6.875 3.452243,-11 1.171947,-4.125 2.719492,-9.075 3.438989,-11 0.719497,-1.925 2.299916,-6.2 3.512043,-9.5 1.212126,-3.3 3.069013,-7.84929 4.126417,-10.10953 C 45.134852,243.13023 46,240.97254 46,240.59561 46,237.45144 66.186147,199.61232 74.325066,187.5 c 3.326172,-4.95 7.863801,-11.7 10.08362,-15 2.219819,-3.3 5.623472,-8.06377 7.563674,-10.58616 1.940202,-2.52239 4.86055,-6.34739 6.489663,-8.5 8.679807,-11.46897 29.090657,-33.19253 41.625407,-44.30251 20.79609,-18.432279 31.01678,-26.453108 47.90199,-37.591764 8.53082,-5.627518 16.86058,-10.97731 18.51058,-11.888427 1.65,-0.911118 3.675,-2.074699 4.5,-2.585737 0.825,-0.511037 7.8,-4.053904 15.5,-7.873039 20.08871,-9.96383 41.88586,-18.899362 56.5,-23.161636 4.125,-1.203073 9.3,-2.787697 11.5,-3.521388 2.2,-0.73369 7.15,-2.045257 11,-2.914593 3.85,-0.869336 9.925,-2.303556 13.5,-3.187156 11.35348,-2.806135 21.813,-4.29735 59,-8.4116366 15.14133,-1.6752029 38.07233,-1.113206 61,1.4949983 24.06521,2.7376083 39.02306,4.9285023 43.5,6.3714913 1.65,0.531822 7.5,1.959302 13,3.172178 5.5,1.212876 11.125,2.651322 12.5,3.196547 1.375,0.545226 6.775,2.261893 12,3.814817 5.225,1.552924 12.65,4.004889 16.5,5.448813 3.85,1.443923 8.125,3.003839 9.5,3.466481 1.375,0.462641 3.85,1.562343 5.5,2.443783 1.65,0.881439 3.38711,1.605389 3.86025,1.608777 1.2663,0.0091 36.11115,17.559149 43.35499,21.836328 3.41838,2.018408 8.36838,4.990215 11,6.604015 7.2926,4.47208 25.27648,17.378872 29.88317,21.446761 2.25413,1.990481 6.97641,5.869057 10.49396,8.619057 21.92336,17.13957 54.4287,52.41805 68.61157,74.46505 2.31217,3.59422 5.73602,8.55995 7.60855,11.03495 1.87254,2.475 4.19951,6.075 5.17104,8 0.97154,1.925 2.27269,4.11605 2.89145,4.86901 2.61985,3.18803 20.62502,37.90309 20.62502,39.7663 0,0.38896 0.58188,1.41764 1.29306,2.28595 0.71118,0.86831 1.88438,3.37874 2.60712,5.57874 0.72274,2.2 2.36037,6.475 3.63918,9.5 7.08418,16.75748 17.58013,54.62902 19.95881,72.0155 0.41269,3.01647 1.16011,6.56755 1.66094,7.89127 1.76605,4.6678 4.82081,43.69239 4.83082,61.71394 0.006,9.96639 -0.6332,24.59139 -1.41943,32.5 -0.78622,7.90861 -1.65017,16.62929 -1.91988,19.37929 -0.26971,2.75 -1.21723,8.6 -2.10558,13 -0.88836,4.4 -2.32809,11.825 -3.19941,16.5 -0.87131,4.675 -2.39298,11.2 -3.3815,14.5 -0.98851,3.3 -2.52166,8.7 -3.40701,12 -0.88534,3.3 -2.08693,7.35 -2.6702,9 -0.58327,1.65 -2.17563,6.6 -3.53858,11 -1.36294,4.4 -3.05256,9.125 -3.75471,10.5 -0.70215,1.375 -2.33398,5.425 -3.6263,9 -2.97727,8.23612 -21.43796,44.72345 -26.29777,51.9772 -2.01826,3.01245 -3.66956,5.99485 -3.66956,6.62755 0,0.6327 -0.66233,1.70005 -1.47185,2.37189 -0.80952,0.67184 -4.70782,6.01444 -8.6629,11.87244 -3.95507,5.85801 -8.58024,12.38186 -10.27815,14.49746 -22.57298,28.12604 -41.08649,47.12347 -62.51926,64.15346 -3.46096,2.75 -8.82957,7.05896 -11.93025,9.57547 -7.25827,5.89081 -22.85338,16.61804 -29.47569,20.2751 -2.83905,1.56782 -5.8369,3.43673 -6.6619,4.15313 -1.57995,1.37197 -25.7292,13.73576 -37.54877,19.22399 -9.97126,4.63 -20.67552,8.93212 -30.45123,12.23857 -4.675,1.58123 -9.85,3.3562 -11.5,3.94438 -9.31566,3.32078 -39.46189,10.57514 -48.5,11.671 -3.025,0.36678 -6.58305,1.07664 -7.90677,1.57747 -1.32372,0.50083 -11.67372,1.79038 -23,2.86567 -25.12894,2.38569 -53.58327,2.37964 -77.59323,-0.0165 z m 21.25792,-295.39626 c 0.18692,-43.40131 -0.0533,-60.26294 -0.87244,-61.25 C 381.9412,421.22422 358.08691,421 237.98454,421 c -130.17746,0 -143.827951,0.14955 -144.377551,1.58179 -1.030866,2.68639 -0.69852,119.92667 0.342913,120.96821 0.595795,0.59586 54.742458,0.76361 145.249998,0.45 L 383.5,543.5 Z m 333.2069,58.45373 C 718.54172,539.11927 718.38318,424.78318 716.8,423.2 715.87783,422.27783 682.43004,422 572.33518,422 c -140.61826,0 -143.28394,0.0357 -144.3,1.93426 C 427.35626,425.20285 427,445.53017 427,483 c 0,37.46983 0.35626,57.79715 1.03518,59.06574 C 429.05125,543.96428 431.71878,544 572.5,544 c 140.78122,0 143.44875,-0.0357 144.46482,-1.93426 z M 551.5,303.5 v -60 H 407 262.5 l -0.25947,59 c -0.14272,32.45 -0.0437,59.56402 0.21991,60.25338 0.38176,0.99812 29.86273,1.20178 144.75947,1 L 551.5,363.5 Z"
       id="path3749"
       inkscape:connector-curvature="0" />
    <path
       style="fill:#e57a7c"
       d="m 385.5,778.92902 c -3.85,-0.43287 -13.75,-1.26655 -22,-1.85263 -8.25,-0.58607 -16.8,-1.72327 -19,-2.5271 -2.2,-0.80383 -6.34677,-1.48126 -9.21505,-1.5054 -2.86828,-0.0241 -7.14328,-0.66939 -9.5,-1.43389 -2.35672,-0.7645 -6.65486,-1.64417 -9.55143,-1.95484 -2.89656,-0.31066 -6.25919,-1.26016 -7.4725,-2.11 C 307.5477,766.69532 305.06566,766 303.24538,766 c -1.82029,0 -4.92512,-0.675 -6.89962,-1.5 -1.97451,-0.825 -4.54755,-1.50277 -5.71788,-1.50616 -1.17034,-0.003 -3.47788,-0.73725 -5.12788,-1.6308 -1.65,-0.89356 -4.575,-1.97166 -6.5,-2.39578 -4.29561,-0.94642 -9.22297,-2.64481 -14.5,-4.99794 -2.2,-0.98103 -6.025,-2.54222 -8.5,-3.46932 -5.24881,-1.96613 -8.09561,-3.26108 -25.21019,-11.46758 -6.9906,-3.35201 -12.97966,-6.53059 -13.30902,-7.0635 C 217.15144,731.43602 216.11076,731 215.16818,731 c -0.94258,0 -4.1672,-1.61576 -7.16581,-3.59058 -2.99861,-1.97482 -6.81335,-4.27746 -8.47719,-5.11697 -1.66385,-0.83952 -3.92518,-2.33209 -5.02518,-3.31682 -1.1,-0.98473 -3.88185,-2.76155 -6.18189,-3.94849 -2.30003,-1.18694 -4.74493,-2.8365 -5.4331,-3.66569 -0.68817,-0.8292 -2.85632,-2.32685 -4.81811,-3.32813 -1.9618,-1.00127 -4.4669,-2.81678 -5.5669,-4.03446 -1.1,-1.21767 -5.6,-4.94398 -10,-8.28068 -4.4,-3.3367 -8.93622,-7.0008 -10.08048,-8.14245 -1.14426,-1.14165 -5.41926,-4.88251 -9.5,-8.31302 C 132.02331,670.1027 107.25806,644.0462 100.59778,634.73434 98.894002,632.35225 95.7,628.22357 93.5,625.5595 91.3,622.89542 88.375,618.77706 87,616.40758 85.625,614.03811 81.092581,607.01457 76.927958,600.79972 72.763334,594.58487 68.4131,587.925 67.260771,586 63.561964,579.82104 47,546.3544 47,545.05921 47,544.37137 46.34818,542.61415 45.551512,541.15429 42.95882,536.4033 40,528.78972 40,526.86926 c 0,-1.03208 -0.9,-3.55571 -2,-5.60808 -1.1,-2.05236 -2.015946,-4.63823 -2.035435,-5.74637 C 35.945075,514.40666 35.286021,512.375 34.5,511 c -0.786021,-1.375 -1.445075,-3.86237 -1.464565,-5.52749 -0.01949,-1.66513 -0.67325,-3.93811 -1.452802,-5.05107 -0.779552,-1.11297 -1.715356,-3.8006 -2.079564,-5.97251 -0.364209,-2.17191 -1.301394,-5.64554 -2.082633,-7.71917 C 26.639196,484.65613 26,481.26554 26,479.1951 c 0,-2.07043 -0.9,-6.32508 -2,-9.45478 -1.1,-3.12969 -2.004871,-7.6141 -2.010824,-9.96534 -0.006,-2.35124 -0.680954,-6.484 -1.5,-9.18391 -0.819047,-2.69991 -1.497961,-8.77491 -1.508699,-13.5 C 18.96974,432.36598 18.298478,423.55 17.488784,417.5 c -1.878892,-14.03901 -1.878892,-32.96099 0,-47 0.809694,-6.05 1.485827,-14.825 1.502518,-19.5 0.01669,-4.675 0.700476,-10.70902 1.519522,-13.40893 0.819047,-2.69991 1.508928,-6.97491 1.533069,-9.5 0.02414,-2.52509 0.728964,-6.39107 1.566274,-8.59107 0.837309,-2.2 1.887495,-6.7 2.333746,-10 0.446252,-3.3 1.280145,-7.35 1.853097,-9 0.572951,-1.65 1.478618,-4.8 2.012592,-7 0.533974,-2.2 1.431521,-5.35 1.994548,-7 0.563028,-1.65 1.785117,-5.7 2.715754,-9 0.930638,-3.3 2.544375,-7.84929 3.586082,-10.10953 C 39.147694,265.13023 40,262.35419 40,261.22151 c 0,-1.94084 0.576683,-3.33375 5.141881,-12.41963 C 46.163847,246.76792 47,244.40362 47,243.5479 c 0,-0.85573 1.548255,-4.59158 3.440566,-8.30189 1.892311,-3.7103 4.616121,-9.22101 6.052911,-12.24601 1.43679,-3.025 4.35946,-8.65 6.494822,-12.5 2.135362,-3.85 4.369341,-8.06228 4.964397,-9.36062 1.121055,-2.44602 6.349702,-10.26065 9.020094,-13.48126 0.839965,-1.01304 2.65221,-3.75003 4.02721,-6.08219 16.064157,-27.24676 51.84366,-66.25382 82,-89.396945 3.025,-2.321501 7.525,-5.777737 10,-7.680524 10.84395,-8.33686 20.76501,-15.186792 23.99817,-16.569381 1.37399,-0.587557 3.20059,-1.703964 4.05909,-2.480904 2.20805,-1.998258 7.77143,-4.988639 29.55578,-15.886589 C 241.12522,44.302714 250.28079,40 250.95875,40 c 0.67797,0 2.4271,-0.65182 3.88696,-1.448488 C 259.36263,36.086555 267.17212,33 268.89193,33 c 0.90073,0 3.31689,-0.9 5.36925,-2 2.05237,-1.1 4.7457,-2.014312 5.9852,-2.031803 1.23949,-0.01749 3.12713,-0.692492 4.19475,-1.5 C 285.50875,26.660688 287.99612,26 289.96862,26 c 1.9725,0 4.49698,-0.637815 5.60994,-1.417367 1.11297,-0.779552 3.8006,-1.715356 5.97251,-2.079564 2.17191,-0.364209 5.64554,-1.301394 7.71917,-2.082633 C 311.34387,19.639196 314.73446,19 316.8049,19 c 2.07043,0 6.32508,-0.9 9.45478,-2 3.12969,-1.1 7.54484,-2 9.81143,-2 2.26659,0 6.44033,-0.635568 9.27498,-1.412374 C 348.18074,12.81082 356.575,11.888413 364,11.537832 c 7.425,-0.350581 15.75,-1.038187 18.5,-1.528015 7.8407,-1.3965773 30.90567,-1.139662 43,0.478967 6.05,0.809694 14.6,1.486297 19,1.503562 4.4,0.01727 10.475,0.69571 13.5,1.507654 3.025,0.811944 7.42374,1.481603 9.77498,1.488131 2.35124,0.0065 6.83565,0.911869 9.96534,2.011869 3.1297,1.1 7.50596,2.015946 9.72502,2.035435 2.21906,0.01949 5.15966,0.678544 6.53466,1.464565 1.375,0.786021 3.85,1.460344 5.5,1.498496 1.65,0.03815 4.8,0.938829 7,2.001504 2.2,1.062675 5.35,1.963352 7,2.001504 1.65,0.03815 4.125,0.712475 5.5,1.498496 1.375,0.786021 3.40666,1.445075 4.51481,1.464565 1.10814,0.01949 3.69401,0.935435 5.74637,2.035435 2.05237,1.1 4.59673,2 5.65416,2 1.81247,0 3.23118,0.593906 12.28278,5.141881 C 549.23208,39.163847 551.59638,40 552.4521,40 c 0.85573,0 4.59158,1.548255 8.30189,3.440566 3.7103,1.892311 9.22101,4.600584 12.24601,6.018384 3.025,1.4178 6.175,3.011741 7,3.542091 0.825,0.53035 3.60594,1.984577 6.17986,3.231616 4.28825,2.077611 13.30095,7.272518 21.28274,12.267343 1.75781,1.1 4.6792,2.9 6.49197,4 1.81277,1.1 5.47634,3.6875 8.14127,5.75 2.66493,2.0625 5.19606,3.754799 5.62474,3.760665 0.42868,0.0059 3.02942,2.097143 5.77942,4.647282 2.75,2.550139 6.14629,5.35784 7.54732,6.239335 13.46184,8.469888 53.68004,48.587818 64.26296,64.102718 1.68822,2.475 4.13523,5.64759 5.43779,7.0502 1.30256,1.40262 2.9046,3.45409 3.56011,4.55884 3.50297,5.90371 7.59211,12.05512 10.82356,16.28221 1.99746,2.61288 4.35949,6.15801 5.24896,7.87805 0.88947,1.72004 2.91866,5.0631 4.50931,7.42902 1.59066,2.36592 3.62116,5.87668 4.51222,7.80168 1.92466,4.15789 6.41251,12.88356 7.71492,15 0.50768,0.825 1.62949,3.075 2.4929,5 0.86342,1.925 2.82203,6.2 4.35247,9.5 1.53045,3.3 3.55008,8.025 4.48809,10.5 0.938,2.475 2.57034,6.16415 3.62743,8.19812 1.05708,2.03396 1.93791,4.73396 1.9574,6 0.0195,1.26603 0.67854,3.42688 1.46456,4.80188 0.78602,1.375 1.44508,3.51413 1.46456,4.75362 0.0195,1.2395 0.93544,3.93283 2.03544,5.9852 1.1,2.05236 2.01595,4.86323 2.03544,6.24637 0.0195,1.38315 0.67854,3.63981 1.46456,5.01481 0.78602,1.375 1.46034,4.075 1.4985,6 0.0381,1.925 0.93882,5.3 2.0015,7.5 1.06268,2.2 1.94741,5.63092 1.96607,7.62427 0.0187,1.99335 0.70893,5.53743 1.53393,7.87573 0.825,2.3383 1.5,6.3632 1.5,8.94423 0,2.58102 0.70955,7.0821 1.57679,10.00239 0.86723,2.92029 1.95531,10.98947 2.41794,17.9315 0.46264,6.94203 1.40547,18.58438 2.09519,25.87188 1.00026,10.56871 1.00378,15.93129 0.0174,26.5 -0.68013,7.2875 -1.64334,19.325 -2.14047,26.75 -0.49713,7.425 -1.5733,15.3 -2.39149,17.5 -0.81818,2.2 -1.50736,6.34677 -1.5315,9.21505 -0.0241,2.86828 -0.66939,7.14328 -1.43389,9.5 -0.7645,2.35672 -1.64417,6.65486 -1.95484,9.55143 -0.31066,2.89656 -1.26016,6.25919 -2.11,7.4725 -0.84984,1.21332 -1.54516,3.69536 -1.54516,5.51564 0,1.82029 -0.675,4.92512 -1.5,6.89962 -0.825,1.97451 -1.5,4.43668 -1.5,5.47151 0,1.03482 -0.9,3.5607 -2,5.61307 -1.1,2.05236 -2,4.88972 -2,6.30524 0,1.41552 -0.66069,3.44719 -1.4682,4.51481 -0.8075,1.06762 -1.4825,2.97698 -1.5,4.24301 -0.0175,1.26604 -0.89668,3.96604 -1.95376,6 -1.05709,2.03397 -2.67385,5.72312 -3.59282,8.19812 -2.0264,5.45758 -3.59006,8.87172 -11.44981,25 -5.79726,11.89602 -6.69829,13.66561 -9.0378,17.75 -0.55131,0.9625 -1.46491,2.65 -2.03023,3.75 -1.30823,2.5456 -8.35881,13.55953 -13.17937,20.58791 -18.3076,26.69249 -23.25439,32.78269 -45.28801,55.75595 -10.18126,10.61545 -31.67808,29.84205 -38.47863,34.41501 -2.48675,1.67219 -5.53734,4.17205 -6.77908,5.55525 -1.24174,1.3832 -4.47185,3.90337 -7.17801,5.60039 -2.70617,1.69702 -7.9902,5.15866 -11.74229,7.69255 -6.11503,4.12963 -18.37587,11.70371 -22.32199,13.78931 -0.825,0.43603 -2.625,1.38984 -4,2.11959 -1.375,0.72975 -4.75,2.4201 -7.5,3.75633 -2.75,1.33624 -5.675,2.84316 -6.5,3.34872 -0.825,0.50556 -3.075,1.62563 -5,2.48904 -1.925,0.86342 -6.2,2.82203 -9.5,4.35247 -3.3,1.53045 -8.025,3.55008 -10.5,4.48809 -2.475,0.938 -6.16415,2.57034 -8.19812,3.62743 -2.03396,1.05708 -4.73396,1.93627 -6,1.95376 -1.26603,0.0175 -3.17539,0.6925 -4.24301,1.5 -1.06762,0.80751 -3.09929,1.4682 -4.51481,1.4682 -1.41552,0 -4.25288,0.9 -6.30524,2 -2.05237,1.1 -4.9707,2.01595 -6.4852,2.03544 -1.51449,0.0195 -3.87862,0.67854 -5.25362,1.46456 -1.375,0.78602 -4.075,1.46034 -6,1.4985 -1.925,0.0381 -5.3,0.93882 -7.5,2.0015 -2.2,1.06268 -5.63092,1.94741 -7.62427,1.96607 -1.99335,0.0187 -5.53743,0.70893 -7.87573,1.53393 -2.3383,0.825 -6.37336,1.5 -8.9668,1.5 -2.59343,0 -6.92436,0.68987 -9.62427,1.53303 -2.69991,0.84317 -11.20893,1.95716 -18.90893,2.47553 -7.7,0.51836 -18.05,1.3955 -23,1.9492 -10.18371,1.13911 -21.70494,1.12877 -32,-0.0287 z m -2.08024,-234.79919 c 0.90389,-1.46252 0.72863,-121.38144 -0.17871,-122.28878 -0.59684,-0.59684 -217.63121,-1.23354 -288.99105,-0.84781 -0.98634,0.005 -1.25,12.9437 -1.25,61.34009 0,33.73334 0.3,61.63334 0.666667,62 1.007146,1.00715 289.129933,0.80479 289.753093,-0.2035 z m 334.33818,-60.57189 c 0.14187,-32.96813 -0.10724,-60.30724 -0.55357,-60.75357 -0.90572,-0.90572 -287.8159,-1.16249 -289.27796,-0.25889 C 427.37455,422.88655 427,447.33213 427,483.00933 c 0,50.86967 0.21522,60.01175 1.42876,60.69098 0.78582,0.43983 66.14832,0.57469 145.25,0.29969 L 717.5,543.5 Z M 396.00005,399 v -4.5 L 238.25003,394.73996 80.5,394.97993 l -0.320459,3.10523 c -0.176252,1.70788 -0.12103,3.62489 0.122714,4.26004 0.33246,0.86631 39.821295,1.1548 158.070485,1.1548 h 157.62731 z m 334.99665,1.50868 c 2.25949,-5.9429 14.39717,-5.53831 -157.85487,-5.26177 L 415.5,395.5 v 3 3 l 156.5,0.50469 c 86.075,0.27758 156.84864,0.61508 157.27475,0.75 0.42611,0.13492 1.20099,-0.87578 1.72195,-2.24601 z M 551.5,303.5 v -61 H 407 262.5 l -0.25941,60 c -0.14267,33 -0.0437,60.56402 0.21992,61.25338 0.3817,0.99812 29.86263,1.20178 144.7594,1 L 551.5,364.5 Z m 13.70418,-82.78774 c 0.24053,-1.25826 0.25549,-2.83326 0.0332,-3.5 C 564.92313,216.2694 529.73894,216 406.91667,216 H 249 v 3.5 3.5 h 157.88342 157.88343 z"
       id="path3747"
       inkscape:connector-curvature="0" />
    <path
       style="fill:#ad9372"
       d="m 415.5,560.84527 c -4.62055,-2.52725 -4.5,-0.63928 -4.5,-70.47738 0,-49.33418 -0.29739,-66.43365 -1.16472,-66.96969 -0.6406,-0.39591 -3.0031,-0.75997 -5.25,-0.80902 L 400.5,422.5 400,489 c -0.51646,68.68908 -0.59127,69.86171 -4.55401,71.38235 -2.8947,1.1108 -312.401266,0.71195 -314.488813,-0.40527 C 76.511263,557.5977 76.524765,557.79374 76,488 l -0.5,-66.5 -3,-0.29042 c -4.853925,-0.46989 -8.162413,-2.17324 -9.37028,-4.82422 C 62.4458,414.88432 62,407.80799 62,398.45295 62,384.33333 62.172567,382.82743 64,381 c 1.970185,-1.97019 3.333333,-2 91.44098,-2 49.19254,0 89.58004,-0.3375 89.75,-0.75 0.16996,-0.4125 0.084,-30.89252 -0.19098,-67.73337 l -0.5,-66.98337 -3.77175,-0.61275 c -2.07446,-0.33701 -4.89657,-1.66946 -6.27135,-2.961 l -2.4996,-2.34825 0.27135,-18.55563 L 232.5,200.5 290,199.9714 c 31.625,-0.29074 57.56364,-0.62824 57.64142,-0.75 0.0778,-0.12177 0.89814,-2.1339 1.82302,-4.4714 2.47568,-6.25691 7.88465,-11.24617 18.31508,-16.89388 l 9.27951,-5.02454 -2.19443,-3.66579 c -1.20694,-2.01618 -2.83058,-4.4153 -3.6081,-5.33137 -4.72721,-5.56956 -6.67802,-23.62742 -3.66257,-33.90292 4.00277,-13.63994 16.90384,-26.13281 31.33757,-30.346037 6.99878,-2.042954 19.7348,-2.029051 26.81518,0.02927 14.78172,4.297167 27.63589,16.606217 31.65939,30.316767 3.01545,10.2755 1.06464,28.33336 -3.66257,33.90292 -0.77752,0.91607 -2.39849,3.31086 -3.60215,5.32175 l -2.18849,3.65617 8.38007,4.56798 c 9.33063,5.08613 15.40309,10.57741 18.69364,16.90452 1.2057,2.31834 2.70546,4.54577 3.33281,4.94985 0.62734,0.40408 23.92302,0.74158 51.76818,0.75 45.83907,0.0139 50.75736,0.17155 52,1.6672 1.80761,2.17567 2.51841,27.23544 0.93889,33.10134 -1.25149,4.64767 -4.94039,7.87972 -9.59793,8.40926 L 570.5,243.5 569.94405,309 c -0.30577,36.025 -0.75577,66.4 -1,67.5 -0.44084,1.98553 0.20346,2.00362 89.05595,2.5 l 89.5,0.5 1.19356,3.5 c 1.53616,4.50465 1.64826,25.75687 0.1669,31.6399 -1.18242,4.6958 -3.38549,6.39935 -10.11046,7.81806 l -2.75,0.58014 -0.0761,64.73095 c -0.0813,69.19772 -0.17023,70.49312 -5.0077,72.96621 -3.28287,1.67832 -312.3518,1.78611 -315.41622,0.11001 z m -32.08024,-16.71544 c 0.90389,-1.46252 0.72863,-121.38144 -0.17871,-122.28878 -0.59684,-0.59684 -217.63121,-1.23354 -288.99105,-0.84781 -0.98634,0.005 -1.25,12.9437 -1.25,61.34009 0,33.73334 0.3,61.63334 0.666667,62 1.007146,1.00715 289.129933,0.80479 289.753093,-0.2035 z m 334.33818,-60.57189 c 0.14187,-32.96813 -0.10724,-60.30724 -0.55357,-60.75357 -0.90572,-0.90572 -287.8159,-1.16249 -289.27796,-0.25889 C 427.37455,422.88655 427,447.33213 427,483.00933 c 0,50.86967 0.21522,60.01175 1.42876,60.69098 0.78582,0.43983 66.14832,0.57469 145.25,0.29969 L 717.5,543.5 Z M 396.00005,399 v -4.5 L 238.25003,394.73996 80.5,394.97993 l -0.320459,3.10523 c -0.176252,1.70788 -0.12103,3.62489 0.122714,4.26004 0.33246,0.86631 39.821295,1.1548 158.070485,1.1548 h 157.62731 z m 334.99665,1.50868 c 2.25949,-5.9429 14.39717,-5.53831 -157.85487,-5.26177 L 415.5,395.5 v 3 3 l 156.5,0.50469 c 86.075,0.27758 156.84864,0.61508 157.27475,0.75 0.42611,0.13492 1.20099,-0.87578 1.72195,-2.24601 z M 551.5,303.5 v -61 H 407 262.5 l -0.25941,60 c -0.14267,33 -0.0437,60.56402 0.21992,61.25338 0.3817,0.99812 29.86263,1.20178 144.7594,1 L 551.5,364.5 Z m 13.70418,-82.78774 c 0.24053,-1.25826 0.25549,-2.83326 0.0332,-3.5 C 564.92313,216.2694 529.73894,216 406.91667,216 H 249 v 3.5 3.5 h 157.88342 157.88343 z"
       id="path3745"
       inkscape:connector-curvature="0" />
    <path
       style="fill:#97605a"
       d="m 415.5,560.84527 c -4.62055,-2.52725 -4.5,-0.63928 -4.5,-70.47738 0,-49.33418 -0.29739,-66.43365 -1.16472,-66.96969 -0.6406,-0.39591 -3.0031,-0.75997 -5.25,-0.80902 L 400.5,422.5 400,489 c -0.51646,68.68908 -0.59127,69.86171 -4.55401,71.38235 -2.8947,1.1108 -312.401266,0.71195 -314.488813,-0.40527 C 76.511263,557.5977 76.524765,557.79374 76,488 l -0.5,-66.5 -3,-0.29042 c -4.853925,-0.46989 -8.162413,-2.17324 -9.37028,-4.82422 C 62.4458,414.88432 62,407.80799 62,398.45295 62,384.33333 62.172567,382.82743 64,381 c 1.970185,-1.97019 3.333333,-2 91.44098,-2 49.19254,0 89.58004,-0.3375 89.75,-0.75 0.16996,-0.4125 0.084,-30.89252 -0.19098,-67.73337 l -0.5,-66.98337 -3.77175,-0.61275 c -2.07446,-0.33701 -4.89657,-1.66946 -6.27135,-2.961 l -2.4996,-2.34825 0.27135,-18.55563 L 232.5,200.5 290,199.9714 c 31.625,-0.29074 57.56364,-0.62824 57.64142,-0.75 0.0778,-0.12177 0.89814,-2.1339 1.82302,-4.4714 2.47568,-6.25691 7.88465,-11.24617 18.31508,-16.89388 l 9.27951,-5.02454 -2.19443,-3.66579 c -1.20694,-2.01618 -2.83058,-4.4153 -3.6081,-5.33137 -4.72721,-5.56956 -6.67802,-23.62742 -3.66257,-33.90292 4.00277,-13.63994 16.90384,-26.13281 31.33757,-30.346037 6.99878,-2.042954 19.7348,-2.029051 26.81518,0.02927 14.78172,4.297167 27.63589,16.606217 31.65939,30.316767 3.01545,10.2755 1.06464,28.33336 -3.66257,33.90292 -0.77752,0.91607 -2.39849,3.31086 -3.60215,5.32175 l -2.18849,3.65617 8.38007,4.56798 c 9.33063,5.08613 15.40309,10.57741 18.69364,16.90452 1.2057,2.31834 2.70546,4.54577 3.33281,4.94985 0.62734,0.40408 23.92302,0.74158 51.76818,0.75 45.83907,0.0139 50.75736,0.17155 52,1.6672 1.80761,2.17567 2.51841,27.23544 0.93889,33.10134 -1.25149,4.64767 -4.94039,7.87972 -9.59793,8.40926 L 570.5,243.5 569.94405,309 c -0.30577,36.025 -0.75577,66.4 -1,67.5 -0.44084,1.98553 0.20346,2.00362 89.05595,2.5 l 89.5,0.5 1.19356,3.5 c 1.53616,4.50465 1.64826,25.75687 0.1669,31.6399 -1.18242,4.6958 -3.38549,6.39935 -10.11046,7.81806 l -2.75,0.58014 -0.0761,64.73095 c -0.0813,69.19772 -0.17023,70.49312 -5.0077,72.96621 -3.28287,1.67832 -312.3518,1.78611 -315.41622,0.11001 z M 384.8,544.8 c 0.90699,-0.90699 1.2,-16.03184 1.2,-61.9433 v -60.74329 l -2.22251,-1.55671 C 381.79101,419.16531 366.30787,419 237.97749,419 127.63944,419 94.12219,419.27781 93.2,420.2 c -0.907373,0.90737 -1.2,16.22963 -1.2,62.83333 0,33.89834 0.3,61.93334 0.666667,62.3 C 93.033333,545.7 158.64333,546 238.46667,546 350.01481,546 383.87769,545.72231 384.8,544.8 Z m 332.94335,-0.25501 C 719.5312,543.85893 719.58671,422.98671 717.8,421.2 716.87776,420.27776 683.20782,420 572.33518,420 c -141.60694,0 -144.28388,0.0356 -145.3,1.93426 -0.6803,1.27116 -1.03518,22.32998 -1.03518,61.42857 0,47.97725 0.25581,59.75012 1.32143,60.81574 1.0852,1.0852 27.04972,1.27917 145.24334,1.08504 79.15706,-0.13002 144.48742,-0.45339 145.17858,-0.71862 z M 396.5,399 v -6.5 l -158.27358,-0.25309 -158.273574,-0.25308 -0.976423,2.56818 C 78.43939,395.97452 78,397.97161 78,399 c 0,1.02839 0.43939,3.02548 0.976423,4.43799 l 0.976423,2.56818 L 238.22642,405.75309 396.5,405.5 Z m 335.52475,3.4349 c 1.17599,-3.09309 1.22259,-5.49696 0.13965,-7.20314 -1.17045,-1.84404 -317.17439,-1.81699 -318.34564,0.0272 -1.31933,2.0774 -0.91136,6.50553 0.75267,8.16956 1.41526,1.41527 17.2187,1.57143 159.02475,1.57143 H 731.0495 l 0.97525,-2.5651 z M 551.41821,365.39301 C 552.8364,364.8488 553,358.54826 553,304.4748 553,271.30363 552.72686,243.45177 552.39301,242.58179 551.84338,241.14948 538.10343,241 407,241 c -131.10343,0 -144.84338,0.14948 -145.39301,1.58179 -0.33385,0.86998 -0.60699,28.45498 -0.60699,61.3 0,45.11416 0.29346,60.01167 1.2,60.91821 0.92216,0.92216 34.3596,1.2 144.41821,1.2 78.77002,0 143.93002,-0.27314 144.8,-0.60699 z m 14.7821,-142.9333 c 0.78587,-1.7248 0.85151,-3.41017 0.20448,-5.25 L 565.45184,214.5 H 406.97592 248.5 l -0.31663,3.85516 c -0.17415,2.12034 -0.0758,4.48284 0.21861,5.25 C 248.8567,224.79014 272.71719,225 406.99005,225 h 158.05283 z"
       id="path3743"
       inkscape:connector-curvature="0" />
    <path
       style="fill:#553130"
       d="M 414.86078,558.08869 412.5,556.17737 412,488.85225 l -0.5,-67.32513 -5.49378,-0.79042 c -4.62934,-0.66604 -5.69144,-0.52009 -6.75,0.92757 C 398.27809,423.00195 398,437.93423 398,489.11855 v 65.73629 l -2.63486,2.07258 L 392.73028,559 H 237.81739 82.904502 L 80.452251,556.35398 78,553.70795 V 488.28824 C 78,445.10511 77.648134,422.21105 76.964816,420.93426 76.25214,419.60261 74.867554,419 72.52058,419 c -2.160278,0 -4.436836,-0.88318 -6.214816,-2.411 -2.799824,-2.4059 -2.806443,-2.44148 -3.126294,-16.80212 -0.292483,-13.13187 -0.147103,-14.6053 1.661452,-16.839 L 66.822904,380.5 156.96641,380 l 90.14351,-0.5 -0.0816,-67.36551 c -0.0496,-40.97561 -0.45779,-68.06844 -1.04192,-69.1599 -0.55956,-1.04555 -2.67919,-2.08479 -5.07913,-2.49026 C 233.362,239.20957 233,238.25451 233,219.62244 c 0,-12.48298 0.31921,-16.64247 1.34235,-17.4916 0.94317,-0.78277 18.11611,-1.19088 57.75,-1.37244 L 348.5,200.5 l 2.5,-5 c 1.375,-2.75 3.90935,-6.45319 5.63189,-8.22932 2.75508,-2.84078 13.26186,-8.72225 21.75428,-12.17759 l 2.88617,-1.1743 -1.98615,-2.20939 C 372.68583,164.36714 367,150.84955 367,142.5 c 0,-9.08511 6.02222,-22.62018 13.41205,-30.14389 6.68357,-6.80465 21.94543,-13.28996 31.39054,-13.338972 10.12424,-0.05254 26.05132,6.417532 32.78536,13.318412 C 452.00169,119.93297 458,133.42351 458,142.5 c 0,8.34955 -5.68583,21.86714 -12.28619,29.2094 l -1.98615,2.20939 2.88617,1.146 c 13.37816,5.31202 23.31082,12.53185 25.99973,18.89861 3.2074,7.59444 -1.23785,7.0366 56.07281,7.0366 47.98948,0 51.42377,0.11537 52.09501,1.75 0.39524,0.9625 0.71862,8.79072 0.71862,17.39605 0,17.76358 -0.52214,19.17505 -7.53149,20.35927 -2.11936,0.35806 -4.31674,1.20934 -4.88307,1.89173 -0.67559,0.81404 -1.14571,23.91381 -1.36706,67.17183 -0.18555,36.26212 -0.5356,66.83112 -0.77787,67.93112 -0.43731,1.98549 0.20848,2.00363 89.03006,2.5 l 89.47057,0.5 1.31189,2.5 c 0.95692,1.82356 1.23545,6.65055 1.02942,17.83975 -0.2716,14.75034 -0.37316,15.41315 -2.64323,17.25 -1.29844,1.05064 -3.46552,1.91025 -4.81575,1.91025 -1.35022,0 -3.32537,0.46583 -4.38921,1.03518 -1.8818,1.00711 -1.93426,2.79296 -1.93426,65.85078 0,66.86495 -0.17944,70.06934 -4.03944,72.13515 C 728.78997,559.64759 672.16599,560 572.67653,560 421.11607,560 417.16242,559.95212 414.86078,558.08869 Z M 385.8,545.8 c 0.90742,-0.90742 1.2,-16.25407 1.2,-62.9433 v -61.74329 l -2.22251,-1.55671 C 382.7908,418.16517 367.1973,418 237.81268,418 95.733654,418 93.05132,418.03559 92.035184,419.93426 90.456824,422.88345 90.615704,544.2157 92.2,545.8 c 1.744201,1.7442 291.8558,1.7442 293.6,0 z m 333,-1 c 0.90687,-0.90687 1.2,-15.97139 1.2,-61.67126 0,-54.86582 -0.15341,-60.64078 -1.65499,-62.3 C 716.75627,419.0732 710.92037,419 572.54501,419 461.76556,419 428.12223,419.27777 427.2,420.2 c -0.90737,0.90737 -1.2,16.22963 -1.2,62.83333 0,33.89834 0.3,61.93334 0.66667,62.3 C 427.03333,545.7 492.64333,546 572.46667,546 684.01481,546 717.87769,545.72231 718.8,544.8 Z M 397.5,399 v -7.5 l -159.27358,-0.25307 -159.273588,-0.25307 -0.976416,2.56817 C 77.439387,394.97452 77,397.42161 77,399 c 0,1.57839 0.439387,4.02548 0.976416,5.43797 l 0.976416,2.56817 L 238.22642,406.75307 397.5,406.5 Z m 335.52475,4.4349 c 1.44395,-3.79787 1.18498,-8.08231 -0.59618,-9.86347 C 731.01327,392.15613 715.17316,392 573,392 c -142.17316,0 -158.01327,0.15613 -159.42857,1.57143 -1.78547,1.78547 -2.08282,7.60452 -0.53625,10.49431 1.0168,1.89989 3.85989,1.93426 160.02475,1.93426 H 732.0495 Z M 552.06574,365.96482 C 553.94577,364.95865 554,363.21209 554,303.66482 554,257.34774 553.70722,242.10722 552.8,241.2 551.87771,240.27771 518.08339,240 406.77525,240 H 261.9505 l -0.97525,2.5651 C 260.38134,244.12719 260,268.34255 260,304.49367 c 0,52.63346 0.17815,59.54163 1.57143,60.9349 1.41397,1.41397 15.9497,1.57143 145.06574,1.57143 97.00191,0 144.12102,-0.3354 145.42857,-1.03518 z M 566.4433,224.77749 c 1.87386,-2.67531 2.0282,-7.75468 0.3067,-10.09339 -1.16823,-1.58708 -11.65145,-1.68135 -160.25,-1.44113 l -159,0.25703 -0.30507,5.33118 c -0.17575,3.07106 0.19412,5.93267 0.87244,6.75 C 249.07501,226.79531 272.01359,227 407.06574,227 h 157.82085 z"
       id="path3741"
       inkscape:connector-curvature="0" />
    <path
       style="fill:#0e0807"
       d="m 416.11157,556.25 c -2.10335,-1.7445 -2.11078,-1.95978 -2.36078,-68.4504 -0.18518,-49.24943 -0.55647,-67.00597 -1.41916,-67.86836 -1.61777,-1.61722 -12.24915,-2.24458 -13.96103,-0.82385 -1.13533,0.94224 -1.3706,12.40743 -1.3706,66.79255 0,57.80448 -0.18614,65.9208 -1.5567,67.87755 L 393.88659,556 H 238.63443 C 106.15341,556 83.09755,555.79188 81.44113,554.58107 79.56169,553.20723 79.48411,551.02231 79,485.83107 78.725,448.79898 78.135942,417.9375 77.690983,417.25 77.246024,416.5625 75.193376,416 73.129544,416 70.735475,416 68.584878,415.26191 67.188561,413.96104 65.148955,412.06086 65,411.01647 65,398.61603 c 0,-11.55866 0.237123,-13.52065 1.805648,-14.94014 1.637994,-1.48237 10.17557,-1.65925 91.950292,-1.90499 70.86541,-0.21296 90.41402,-0.54034 91.40416,-1.53071 1.01271,-1.01294 0.92447,-1.82701 -0.45029,-4.15429 C 248.14322,373.43387 248,367.66097 248,307.16714 248,233.44004 248.46468,238 240.95162,238 c -6.42455,0 -7.16324,-2.11022 -6.7764,-19.35813 0.17863,-7.96451 0.69955,-14.85464 1.1576,-15.3114 0.45805,-0.45676 26.47564,-0.95379 57.81687,-1.10453 l 56.98405,-0.27405 2.04639,-4.72595 c 1.12551,-2.59926 3.67081,-6.42272 5.65622,-8.49657 C 361.44368,184.96135 376.4437,177 379.93571,177 c 1.00067,0 2.37142,-0.66514 3.04611,-1.4781 1.01032,-1.21736 0.48463,-2.31985 -2.98017,-6.25 -5.04446,-5.72198 -7.70002,-10.69367 -9.59226,-17.95846 -1.77616,-6.81914 -1.77616,-10.80774 0,-17.62688 2.13064,-8.18007 5.25516,-13.52181 11.48874,-19.64137 6.34128,-6.2253 13.34482,-9.9222 23.44721,-12.37686 6.31718,-1.53495 7.3588,-1.53977 13.5,-0.0625 19.26268,4.63367 31.44371,15.56591 35.74527,32.08072 1.77616,6.81914 1.77616,10.80774 0,17.62688 -1.89224,7.26479 -4.5478,12.23648 -9.59226,17.95846 -3.4648,3.93015 -3.99049,5.03264 -2.98017,6.25 0.67469,0.81296 2.09503,1.4781 3.15632,1.4781 2.93902,0 16.84781,7.27662 21.05173,11.01358 2.04942,1.82178 4.24381,4.9265 4.87642,6.89937 2.44401,7.62196 -1.73382,7.08705 55.35234,7.08705 38.44612,0 51.44296,0.29795 52.34501,1.2 1.71271,1.71271 1.66858,30.82771 -0.05,32.99172 -0.6875,0.8657 -3.25921,1.82185 -5.71491,2.1248 -2.59335,0.31993 -5.00359,1.2875 -5.75,2.30828 C 566.269,242.01438 566,256.21561 566,308.46862 c 0,56.76067 -0.20908,66.38487 -1.48162,68.20168 -3.41863,4.88078 -4.93803,4.79216 91.38495,5.3297 l 89.59667,0.5 0.27677,15.38467 C 746.09553,415.60325 745.37142,418 739.69945,418 c -1.78994,0 -4.25457,0.70052 -5.47694,1.5567 L 732,421.11341 v 66.78831 c 0,63.43343 -0.0919,66.87144 -1.82874,68.44329 C 728.48615,557.87002 716.16413,558 573.28204,558 427.07587,558 418.10108,557.90007 416.11157,556.25 Z M 387,547 c 1.95702,-1.95702 2,-3.33333 2,-64.04545 V 420.90909 L 386.54545,418.45455 384.09091,416 H 238.70044 93.309975 l -1.904987,2.10499 C 89.574279,420.1279 89.5,422.65639 89.5,482.95129 c 0,51.70847 0.24134,63.03212 1.372445,64.39502 C 92.137648,548.87078 103.68263,549 238.62244,549 383.66667,549 385.01822,548.98178 387,547 Z m 332.42857,-0.57143 C 720.82307,545.03407 721,537.93342 721,483.36283 721,442.88559 720.6462,421.20744 719.96482,419.93426 718.9486,418.03543 716.24729,418 572.50496,418 H 426.08028 l -1.09221,3.75 c -0.75111,2.57884 -0.99788,22.36264 -0.79015,63.34689 0.24689,48.70911 0.55281,59.8989 1.67452,61.25 1.26493,1.5236 12.75644,1.65311 146.67858,1.65311 130.76314,0 145.4634,-0.15728 146.87755,-1.57143 z M 398,408.02116 c 2.02689,-1.28128 2.1288,-15.95611 0.12756,-18.36747 C 396.86145,388.12813 384.44642,388 237.90061,388 H 79.046106 l -1.773053,2.70999 c -2.182213,3.33536 -2.432056,14.18857 -0.383447,16.65699 1.243468,1.49829 14.483789,1.63176 160.482834,1.61771 98.54179,-0.009 159.69867,-0.37634 160.62756,-0.96353 z m 336.55103,-3.48904 c 2.01706,-4.82751 1.80856,-8.80526 -0.62361,-11.89726 L 731.85484,390 H 572.99885 C 393.32745,390 411,389.05777 411,398.63717 c 0,3.02187 0.46583,6.36473 1.03518,7.42857 C 413.05202,407.96571 415.90669,408 573.08621,408 H 733.10205 Z M 554.36754,366.14637 c 1.53811,-1.69959 1.65486,-6.96375 1.40499,-63.34686 -0.22314,-50.3496 -0.52124,-61.79281 -1.64497,-63.14637 -1.26503,-1.52375 -12.73138,-1.65194 -146.5,-1.63783 -89.68461,0.009 -145.7006,0.37744 -146.62756,0.96322 -1.30218,0.82289 -1.5359,9.13255 -1.77222,63.0089 -0.18516,42.21178 0.066,62.69292 0.78518,64.03678 1.04567,1.95385 2.67653,1.97579 146.86724,1.97579 140.70196,0 145.86859,-0.0649 147.48734,-1.85363 z m 13.06222,-139.06875 c 2.55595,-2.8243 3.11842,-9.11689 1.1544,-12.91487 -0.89954,-1.73951 -1.96146,-3.22469 -2.35984,-3.30039 -0.39838,-0.0757 -71.96247,-0.21905 -159.03132,-0.31856 -124.47806,-0.14226 -158.66879,0.0836 -160,1.05703 -2.17085,1.58736 -2.40788,13.2304 -0.32056,15.74548 1.2661,1.52554 13.67193,1.65369 160.09502,1.65369 155.31644,0 158.7599,-0.0412 160.4623,-1.92238 z"
       id="path3739"
       inkscape:connector-curvature="0" />
  </g>
</svg>
